<mxfile host="app.diagrams.net" modified="2024-06-18T02:41:16.859Z" agent="Mozilla/5.0 (Macintosh; Intel Mac OS X 10_15_7) AppleWebKit/537.36 (KHTML, like Gecko) Chrome/126.0.0.0 Safari/537.36" version="24.5.5" etag="NNkGrhOtaeITzSyF7aEj" type="github">
  <diagram name="第 1 页" id="TxQpyTFtw3pzrJhhFW7E">
    <mxGraphModel>
      <root>
        <mxCell id="0" />
        <mxCell id="1" parent="0" />
      </root>
    </mxGraphModel>
  </diagram>
</mxfile>
